<?xml version="1.0" standalone="no"?>
<!DOCTYPE svg PUBLIC "-//W3C//DTD SVG 20010904//EN"
 "http://www.w3.org/TR/2001/REC-SVG-20010904/DTD/svg10.dtd">
<svg version="1.0" xmlns="http://www.w3.org/2000/svg"
 width="1545.000000pt" height="1544.000000pt" viewBox="0 0 1545.000000 1544.000000"
 preserveAspectRatio="xMidYMid meet">
<metadata>
Created by potrace 1.15, written by Peter Selinger 2001-2017
</metadata>
<g transform="translate(0.000000,1544.000000) scale(0.100000,-0.100000)"
fill="#000000" stroke="none">
<path d="M530 15307 c-94 -26 -171 -99 -205 -196 -13 -39 -15 -801 -15 -7370
0 -6505 2 -7333 15 -7378 20 -66 93 -148 160 -179 l50 -24 7205 0 7205 0 50
24 c61 29 117 84 147 145 l23 46 0 7365 0 7365 -23 42 c-35 66 -75 106 -139
139 l-58 29 -7185 2 c-5619 1 -7195 -1 -7230 -10z m7070 -2362 l0 -1805 1115
0 1115 0 0 1805 0 1805 505 0 505 0 -3 -2667 c-2 -1468 -5 -2674 -7 -2680 -2
-7 -7 -13 -12 -13 -4 0 -8 -5 -8 -11 0 -5 5 -7 10 -4 40 25 -64 -462 -146
-683 -182 -492 -446 -762 -801 -818 -46 -7 -49 -4 -32 28 8 15 8 19 0 14 -8
-5 -11 287 -11 1063 l0 1071 -1110 0 -1110 0 0 -3830 0 -3830 -690 0 -690 0 0
6180 0 6180 685 0 685 0 0 -1805z m4800 -777 c0 -2518 -1 -2587 -20 -2753 -66
-558 -215 -1076 -445 -1544 -201 -408 -414 -710 -710 -1006 -420 -421 -894
-702 -1493 -885 l-153 -47 38 -40 c43 -46 67 -73 138 -158 27 -33 57 -67 65
-75 9 -8 34 -37 55 -65 22 -27 53 -63 68 -79 15 -16 38 -43 50 -59 12 -15 33
-41 47 -56 14 -16 48 -55 75 -87 28 -32 64 -73 80 -90 17 -17 48 -54 70 -80
22 -27 46 -56 55 -64 9 -8 34 -37 55 -65 22 -27 53 -63 68 -79 15 -16 38 -43
50 -59 12 -16 38 -46 57 -66 42 -46 69 -77 135 -156 27 -33 57 -67 65 -75 9
-8 34 -37 55 -65 22 -27 53 -63 68 -79 15 -16 38 -43 50 -59 22 -28 38 -47
107 -124 19 -21 53 -61 75 -88 22 -28 53 -63 69 -80 15 -16 45 -50 65 -75 20
-24 49 -58 64 -74 15 -16 38 -43 50 -59 12 -15 33 -41 47 -56 40 -45 72 -82
125 -146 27 -33 57 -67 65 -75 8 -8 33 -37 55 -65 22 -27 51 -61 65 -75 14
-14 43 -47 65 -75 22 -27 49 -59 60 -71 24 -25 53 -58 120 -139 28 -33 64 -74
80 -91 17 -18 48 -54 70 -80 22 -26 49 -57 60 -68 11 -12 38 -44 60 -71 22
-28 53 -63 69 -80 15 -16 45 -50 65 -75 20 -24 49 -58 64 -74 15 -16 38 -43
50 -59 12 -15 33 -41 47 -56 40 -45 72 -82 125 -146 27 -33 57 -67 65 -75 9
-8 34 -37 55 -65 22 -27 53 -63 68 -79 15 -16 38 -43 50 -59 12 -16 38 -46 57
-66 42 -46 69 -77 135 -156 27 -33 57 -67 65 -75 9 -8 34 -37 55 -65 22 -27
53 -63 68 -79 15 -16 38 -43 50 -59 22 -28 38 -47 107 -124 19 -21 53 -61 75
-88 22 -28 53 -63 69 -80 15 -16 45 -50 65 -75 20 -24 49 -58 64 -74 15 -16
38 -43 50 -59 12 -15 33 -41 47 -56 38 -43 70 -80 125 -146 28 -32 65 -75 83
-95 19 -19 38 -43 43 -52 9 -17 -31 -18 -781 -18 l-791 0 -22 23 c-12 12 -40
44 -62 72 -22 27 -53 64 -70 81 -16 17 -43 48 -59 68 -16 21 -41 50 -55 65
-28 30 -62 70 -126 147 -22 26 -49 57 -60 68 -11 12 -38 43 -60 71 -22 27 -49
59 -60 71 -11 11 -35 38 -52 60 -43 52 -102 120 -133 154 -14 15 -43 49 -65
76 -22 26 -49 57 -60 68 -11 12 -38 43 -60 71 -22 27 -53 63 -68 79 -15 16
-38 43 -50 59 -22 28 -38 47 -107 124 -19 21 -53 61 -75 88 -21 28 -46 57 -55
65 -9 8 -34 38 -55 65 -22 28 -51 61 -65 75 -14 14 -43 47 -65 75 -22 27 -49
59 -60 71 -25 26 -55 61 -120 139 -27 33 -57 67 -65 75 -9 8 -34 37 -55 65
-22 27 -53 63 -68 79 -15 16 -38 43 -50 59 -12 16 -38 46 -57 67 -33 36 -62
69 -142 164 -18 22 -42 49 -53 60 -11 12 -38 43 -60 71 -22 27 -53 63 -68 79
-15 16 -38 43 -50 59 -22 28 -38 47 -107 124 -19 21 -53 61 -75 88 -22 28 -53
63 -69 80 -15 16 -45 50 -65 75 -20 24 -49 58 -64 74 -15 16 -38 43 -50 59
-12 15 -33 41 -47 56 -40 45 -72 82 -125 146 -27 33 -57 67 -65 75 -9 8 -34
37 -55 65 -22 27 -53 63 -68 79 -15 16 -38 43 -50 58 -63 82 -57 184 -57 -985
l0 -1057 -525 0 -525 0 0 3540 0 3540 525 0 525 0 0 -1090 0 -1090 103 0 c353
0 756 106 1041 274 573 339 931 972 1031 1826 13 107 15 500 15 2747 l0 2623
485 0 485 0 0 -2582z m2190 -183 l0 -2765 -595 0 -595 0 0 -290 0 -290 585 0
585 0 0 -3787 0 -3788 -33 36 c-17 20 -50 58 -72 84 -22 27 -49 58 -60 69 -11
12 -38 43 -60 71 -22 27 -49 59 -60 71 -11 11 -35 38 -52 60 -43 52 -102 120
-133 154 -14 15 -43 49 -65 76 -22 26 -49 57 -60 68 -11 12 -38 43 -60 71 -22
27 -53 63 -68 79 -15 16 -38 43 -50 59 -22 28 -38 47 -107 124 -19 21 -53 61
-75 88 -21 28 -46 57 -55 65 -9 8 -34 38 -55 65 -22 28 -51 61 -65 75 -14 14
-43 47 -65 75 -22 27 -49 59 -60 71 -25 26 -55 61 -120 139 -27 33 -57 67 -65
75 -9 8 -34 37 -55 65 -22 27 -53 63 -68 79 -15 16 -38 43 -50 59 -12 16 -38
46 -57 67 -33 36 -62 69 -142 164 -18 22 -42 49 -53 60 -11 12 -38 43 -60 71
-22 27 -53 63 -68 79 -15 16 -38 43 -50 59 -22 28 -38 47 -107 124 -19 21 -53
61 -75 88 -21 28 -46 57 -55 65 -8 8 -38 42 -65 75 -28 33 -57 67 -65 75 -9 8
-34 37 -55 65 -22 27 -49 59 -60 71 -25 26 -55 61 -120 139 -27 33 -57 67 -65
75 -8 8 -33 37 -55 65 -22 27 -53 63 -68 79 -15 16 -38 43 -50 59 -12 16 -45
52 -72 80 -28 29 -68 74 -90 102 -22 27 -53 63 -68 79 -15 16 -38 43 -50 59
-22 28 -38 47 -107 124 -19 21 -53 61 -75 88 -21 28 -46 57 -55 65 -9 8 -34
38 -55 65 -22 28 -51 61 -65 75 -14 14 -43 48 -65 75 -21 28 -46 57 -55 65 -8
8 -33 38 -55 65 -22 28 -49 59 -60 71 -11 11 -35 38 -52 60 -42 50 -97 113
-150 172 -42 46 -42 47 -20 56 51 21 287 141 352 178 211 123 420 279 637 476
l26 24 31 -33 c18 -18 42 -46 54 -62 22 -28 38 -47 107 -124 19 -21 53 -61 75
-88 22 -28 53 -63 69 -80 15 -16 45 -50 65 -75 20 -24 49 -58 64 -74 15 -16
38 -43 50 -59 12 -15 33 -41 47 -56 40 -45 72 -82 125 -146 27 -33 57 -67 65
-75 9 -8 34 -37 55 -65 22 -27 51 -61 65 -75 14 -14 43 -47 65 -75 22 -27 49
-59 60 -71 24 -26 54 -60 120 -139 77 -93 73 -89 95 -74 70 50 429 367 429
380 1 9 -11 29 -26 45 -16 16 -46 51 -68 79 -22 27 -53 64 -70 81 -16 17 -43
48 -59 68 -16 21 -41 50 -55 65 -28 30 -62 70 -126 147 -22 26 -49 57 -60 68
-11 12 -38 43 -60 71 -22 27 -49 59 -60 71 -11 11 -35 38 -52 60 -43 52 -102
120 -133 154 -14 15 -43 49 -65 76 -22 26 -49 57 -60 68 -11 12 -38 43 -60 71
-22 27 -49 59 -60 71 -11 11 -35 38 -52 60 -44 52 -101 119 -140 162 l-32 35
45 61 c196 269 416 677 557 1036 153 389 256 762 345 1255 l27 150 3 2693 2
2692 800 0 800 0 0 -2765z m-8950 -3715 l0 -6470 2095 0 2095 0 0 533 0 532
51 -55 c28 -30 67 -75 87 -100 21 -24 50 -58 65 -74 15 -16 38 -43 50 -59 12
-15 33 -41 47 -56 40 -45 72 -82 125 -146 27 -33 57 -67 65 -75 9 -8 34 -37
55 -65 22 -27 53 -63 68 -79 15 -16 38 -43 50 -59 12 -16 38 -46 57 -66 42
-46 69 -77 135 -156 27 -33 57 -67 65 -75 9 -8 34 -37 55 -65 22 -27 53 -63
68 -79 15 -16 38 -43 50 -59 22 -28 38 -47 107 -124 19 -21 53 -61 75 -88 22
-28 53 -63 69 -80 15 -16 45 -50 65 -75 20 -24 49 -58 64 -74 15 -16 38 -43
50 -59 12 -15 33 -41 47 -56 38 -43 70 -80 125 -146 28 -32 65 -75 83 -95 19
-19 38 -43 43 -52 9 -17 -250 -18 -5381 -18 l-5390 0 0 7005 0 7005 2380 0
2380 0 0 -6470z m3600 4965 l0 -1505 -525 0 -525 0 0 1505 0 1505 525 0 525 0
0 -1505z"/>
</g>
</svg>
