<?xml version="1.0" encoding="UTF-8"?>
<!-- Generated by Pixelmator Pro 3.6.14 -->
<svg width="599" height="247" viewBox="0 0 599 247" xmlns="http://www.w3.org/2000/svg">
    <path id="path1" fill="#000000" fill-rule="evenodd" stroke="none" d="M 277.600006 3.799988 C 283.799988 13.599976 289.200012 27.599976 289.399994 40.799988 C 312.799988 60.799988 339.200012 14.799988 279.200012 2.799988 Z M 313.799988 100.799988 L 313.799988 99.200012 L 313.799988 54 L 330.399994 54 L 330.399994 100.799988 Z M 359.399994 97.399994 L 359.399994 54 L 383.200012 54 C 386 54 388.200012 53 388.799988 50.799988 C 380.200012 42.599976 365.200012 30.400024 365.200012 30.400024 L 352.200012 48.400024 L 329.799988 48.400024 C 342 40.799988 354.600006 29.599976 365 17.200012 C 369.600006 17.400024 372.399994 15.799988 373.200012 13.200012 L 337.600006 1 C 334.600006 17.599976 330 36.400024 326.399994 47.799988 L 327.399994 48.400024 L 275.399994 48.400024 C 268.399994 40.599976 258.399994 30.799988 258.399994 30.799988 L 248.399994 47.400024 L 248.399994 9.799988 C 253.399994 9 255.399994 7 255.799988 4 L 221.399994 0.799988 L 221.399994 49 L 199.200012 49 L 200.799988 54.599976 L 221.399994 54.599976 L 221.399994 90.799988 C 210.799988 92.799988 202.200012 94.399994 197 95.200012 L 206.799988 128.399994 C 209.399994 127.799988 211.799988 125.399994 212.799988 122.799988 L 221.399994 117.600006 L 221.399994 158.600006 C 221.399994 160.799988 220.600006 161.600006 217.799988 161.600006 C 214 161.600006 198.399994 160.600006 198.399994 160.600006 L 198.399994 163.200012 C 207 165 210.399994 167.799988 212.799988 171.799988 C 215.399994 176 216.200012 182.399994 216.600006 191 C 244.600006 188.600006 248.399994 178.799988 248.399994 160.399994 L 248.399994 100.399994 C 259.799988 92.799988 268.600006 86.399994 275.200012 81.200012 L 274.799988 79.399994 C 266 81.399994 257 83.399994 248.399994 85.200012 L 248.399994 54.599976 L 272.600006 54.599976 C 273.799988 54.599976 275 54.400024 275.799988 54 L 285.200012 54 L 285.200012 99.399994 L 285.200012 100.799988 L 259.200012 100.799988 L 260.799988 106.399994 L 285.200012 106.399994 C 284.600006 136.600006 279.399994 166.399994 252 190.200012 L 253.399994 191.600006 C 305 171.399994 312.799988 137.200012 313.799988 106.399994 L 330.399994 106.399994 L 330.399994 191 L 335.799988 191 C 350.600006 191 359.200012 185.399994 359.399994 183.799988 L 359.399994 106.399994 L 387 106.399994 C 390 106.399994 392 105.399994 392.600006 103.200012 C 384.200012 95 369.799988 82.799988 369.799988 82.799988 Z M 56.599998 46 C 60 49.599976 63.600006 56 64 61.799988 C 78.199997 71.599976 92.800003 46 58.599998 44.799988 Z M 113.199997 26.200012 C 98.399994 31 74.199997 37.200012 55 40.400024 L 55.800003 43.799988 C 64.399994 44 73.600006 43.799988 82.800003 43.599976 L 82.800003 64.799988 L 49.400002 64.799988 L 51 70.400024 L 71.399994 70.400024 C 66.399994 81 59 91.200012 49.599998 98.799988 L 51.400002 101.600006 C 63.199997 96.799988 74 90.600006 82.800003 83.200012 L 82.800003 101.799988 L 86.600006 101.799988 C 97.199997 101.799988 103.800003 97.399994 103.800003 96.200012 L 103.800003 77 C 109.800003 82.200012 116.399994 90.200012 119 97 C 138.600006 106 149 70 103.800003 73 L 103.800003 70.400024 L 133 70.400024 C 135.600006 70.400024 137.600006 69.400024 138 67.200012 C 131.600006 62.599976 122.600006 57.599976 122.600006 57.599976 L 114.399994 64.799988 L 103.800003 64.799988 L 103.800003 42.400024 L 112.800003 41.799988 C 111.199997 47 107.600006 56.200012 104.800003 61.799988 L 106.800003 63.200012 C 113.800003 60.400024 121.800003 57.200012 126.399994 54.599976 C 130.199997 55.599976 132.600006 53.799988 133.399994 52.200012 L 114.199997 41.599976 L 121.600006 41 C 126.399994 43.200012 130.199997 43.400024 132.399994 41.799988 L 118 26.200012 L 138.199997 26.200012 L 138.199997 104 L 48.400002 104 L 48.400002 26.200012 Z M 48.400002 109.600006 L 138.199997 109.600006 L 138.199997 116.600006 L 142.800003 116.600006 C 152.199997 116.600006 165 110.600006 165.199997 108.600006 L 165.199997 30.599976 C 169.399994 29.799988 172 28 173.199997 26.200012 L 148.399994 7.200012 L 136.199997 20.599976 L 83.600006 20.599976 C 89.199997 17.599976 96.199997 14 100.800003 11.400024 C 105.199997 10.799988 108 9.200012 108.800003 5.799988 L 72 0.200012 C 71.600006 6.200012 70.800003 14.799988 70 20.599976 L 50.400002 20.599976 L 22.199997 9.599976 L 22.199997 120.399994 L 26.199997 120.399994 C 37.199997 120.399994 48.400002 114.399994 48.400002 111.600006 Z M 154.399994 123.799988 L 0.599998 123.799988 L 2.199997 129.399994 L 47.199997 129.399994 C 45.199997 133.200012 42.599998 138.200012 40.199997 142.600006 C 36.800003 144 33.400002 145.799988 31.199997 147.600006 L 55.400002 162.600006 L 65 152.200012 L 127.800003 152.200012 C 126.600006 159 125.199997 164 123.199997 165.200012 C 121.800003 166 120.399994 166.200012 117.199997 166.200012 C 113.399994 166.200012 96.399994 165.399994 85.800003 164.399994 L 85.800003 166.600006 C 95.800003 168.399994 104.600006 171.399994 108.800003 175.200012 C 113 179 113.800003 183.799988 113.800003 190.600006 C 127.399994 190.600006 135.399994 189.399994 141.399994 186.399994 C 150.399994 181.600006 154 172.399994 156.199997 156.799988 C 160 156.200012 162.199997 155 163.600006 153.399994 L 140.199997 134.600006 L 126.600006 146.600006 L 67 146.600006 C 70 141.200012 73.800003 134.600006 76.600006 129.399994 L 186.199997 129.399994 C 189 129.399994 191.200012 128.399994 191.799988 126.200012 C 182.600006 118.600006 167.600006 107.799988 167.600006 107.799988 Z"/>
    <path id="path2" fill="#000000" fill-rule="evenodd" stroke="none" d="M 414.149994 190.75 C 419.399994 190.75 423.75 186.549988 423.75 181.149994 C 423.75 175.75 419.399994 171.549988 414.149994 171.549988 C 408.899994 171.549988 404.549988 175.75 404.549988 181.149994 C 404.549988 186.549988 408.899994 190.75 414.149994 190.75 Z"/>
    <path id="io" fill="#000000" fill-rule="evenodd" stroke="none" d="M 548.200012 192.600006 C 576.400024 192.600006 598.799988 171 598.799988 139.399994 L 598.799988 137.799988 C 598.799988 106 576.599976 84.799988 548.400024 84.799988 C 520.400024 84.799988 497.799988 106.600006 497.799988 138 L 497.799988 139.600006 C 497.799988 170.399994 519.799988 192.600006 548.200012 192.600006 Z M 548.400024 183.600006 C 525.599976 183.600006 508.799988 166.399994 508.799988 139.600006 L 508.799988 138 C 508.799988 110.799988 526 93.799988 548.400024 93.799988 C 570.599976 93.799988 587.799988 110.399994 587.799988 138 L 587.799988 139.600006 C 587.799988 166.600006 570.799988 183.600006 548.400024 183.600006 Z M 467 64 C 471.200012 64 474.400024 60.599976 474.400024 56.400024 C 474.400024 52.400024 471.200012 49 467 49 C 462.799988 49 459.400024 52.400024 459.400024 56.400024 C 459.400024 60.599976 462.799988 64 467 64 Z M 461.799988 191 L 472.400024 191 L 472.400024 86.399994 L 461.799988 86.399994 Z"/>
    <path id="Rectangle" fill="#e5e7eb" fill-rule="evenodd" stroke="none" d="M 202 246.651306 L 389.472778 246.651306 L 389.472778 217 L 202 217 Z"/>
</svg>
